<?xml version="1.0" encoding="UTF-8" standalone="no" ?>
<!DOCTYPE svg PUBLIC "-//W3C//DTD SVG 1.1//EN" "http://www.w3.org/Graphics/SVG/1.1/DTD/svg11.dtd">
<svg xmlns="http://www.w3.org/2000/svg" xmlns:xlink="http://www.w3.org/1999/xlink" version="1.1" width="500" height="500" viewBox="0 0 500 500" xml:space="preserve">
<desc>Created with Fabric.js 5.3.0</desc>
<defs>
</defs>
<g transform="matrix(1 0 0 1 227.2642244739 242.0521780549)" id="8D0F0ae97U0DoTf8Y0iJ7"  >
<path style="stroke: rgb(0,0,0); stroke-width: 1; stroke-dasharray: none; stroke-linecap: butt; stroke-dashoffset: 0; stroke-linejoin: miter; stroke-miterlimit: 4; fill: rgb(255,255,255); fill-opacity: 0; fill-rule: nonzero; opacity: 1;"  transform=" translate(0, 0.0000022222)" d="M -7.79423 7.44782 C 0.38971 -26.06738 7.79423 7.44782 7.79423 7.44782" stroke-linecap="round" />
</g>
<g transform="matrix(1 0 0 1 206.3522992985 242.0521777778)" id="Xb2yDvFsyhYh7L0inuDd5"  >
<path style="stroke: rgb(0,0,0); stroke-width: 1; stroke-dasharray: none; stroke-linecap: butt; stroke-dashoffset: 0; stroke-linejoin: miter; stroke-miterlimit: 4; fill: rgb(255,255,255); fill-opacity: 0; fill-rule: nonzero; opacity: 1;"  transform=" translate(0, 0.0000022222)" d="M -7.79423 7.44782 C 0.38971 -26.06738 7.79423 7.44782 7.79423 7.44782" stroke-linecap="round" />
</g>
<g transform="matrix(1 0 0 1 235.9508459574 211.7943567874)" id="vCMu_xMo-kuv1Eq-hjPvx"  >
<path style="stroke: rgb(0,0,0); stroke-width: 1; stroke-dasharray: none; stroke-linecap: butt; stroke-dashoffset: 0; stroke-linejoin: miter; stroke-miterlimit: 4; fill: rgb(255,255,255); fill-opacity: 0; fill-rule: nonzero; opacity: 1;"  transform=" translate(1.043e-7, -0.0000025297)" d="M -42.06932 31.89369 C -40.900189999999995 21.76119 -29.598549999999996 22.31 -29.598549999999996 22.31 L -8.686619999999994 22.31 C -8.686619999999994 22.31 -3.4839799999999945 22.496299999999998 -0.8939599999999945 20.90479 C 1.3461900000000053 19.52827 2.2533300000000054 16.343799999999998 2.5820100000000052 5.610429999999999 C 2.7057900000000052 1.5683799999999994 2.747520000000005 -3.5442400000000003 2.747520000000005 -10.034030000000001 C 2.747520000000005 -53.68173 46.39522000000001 -19.537010000000002 41.718680000000006 -13.301620000000002 C 37.04214 -7.066230000000002 14.828580000000006 -10.034030000000001 14.828580000000006 -10.034030000000001" stroke-linecap="round" />
</g>
<g transform="matrix(1 0 0 1 241.3158606486 238.3916066003)" id="56LxuRklVfnRfmBCTBwLd"  >
<path style="stroke: rgb(0,0,0); stroke-width: 1; stroke-dasharray: none; stroke-linecap: butt; stroke-dashoffset: 0; stroke-linejoin: miter; stroke-miterlimit: 4; fill: rgb(255,255,255); fill-opacity: 0; fill-rule: nonzero; opacity: 1;"  transform=" translate(-0.000005, 0.000005)" d="M -5.36501 -6.78788 C -0.3953100000000003 3.8787899999999995 0.2741100000000003 4.8484799999999995 0.2741100000000003 4.8484799999999995 L 4.6377500000000005 6.78787 L 5.36502 2.0606 L -5.365009999999999 -6.78788" stroke-linecap="round" />
</g>
<g transform="matrix(1 0 0 1 243.8771558729 241.2400914487)" id="kfLq2Zyn3d4V2mzB5Svy4"  >
<path style="stroke: rgb(0,0,0); stroke-width: 1; stroke-dasharray: none; stroke-linecap: butt; stroke-dashoffset: 0; stroke-linejoin: miter; stroke-miterlimit: 4; fill: rgb(255,255,255); fill-opacity: 0; fill-rule: nonzero; opacity: 1;"  transform=" translate(0.000005, 0)" d="M -2.5613 1.51515 L 2.5612899999999996 -1.51515" stroke-linecap="round" />
</g>
<g transform="matrix(1 0 0 1 240.9232995821 238.0810005396)" id="tKadRGRHup7siW_D2jkpP"  >
<path style="stroke: rgb(0,0,0); stroke-width: 1; stroke-dasharray: none; stroke-linecap: butt; stroke-dashoffset: 0; stroke-linejoin: miter; stroke-miterlimit: 4; fill: rgb(255,255,255); fill-opacity: 0; fill-rule: nonzero; opacity: 1;"  transform=" translate(0, 0)" d="M -1.51515 1.14394 L 1.51515 -1.14394" stroke-linecap="round" />
</g>
</svg>
