<?xml version="1.0" standalone="no"?>
<!DOCTYPE svg PUBLIC "-//W3C//DTD SVG 20010904//EN"
 "http://www.w3.org/TR/2001/REC-SVG-20010904/DTD/svg10.dtd">
<svg version="1.0" xmlns="http://www.w3.org/2000/svg"
 width="500.000000pt" height="500.000000pt" viewBox="0 0 500.000000 500.000000"
 preserveAspectRatio="xMidYMid meet">
<metadata>
Created by potrace 1.14, written by Peter Selinger 2001-2017
</metadata>
<g transform="translate(0.000000,500.000000) scale(0.100000,-0.100000)"
fill="#000000" stroke="none">
<path d="M3535 4525 c-38 -9 -106 -33 -150 -55 -202 -101 -325 -302 -380 -620
-22 -128 -25 -189 -30 -510 -3 -162 -7 -311 -9 -330 -2 -19 -7 -62 -10 -95 -8
-87 -16 -148 -21 -165 -2 -8 -7 -37 -10 -65 -8 -64 -59 -278 -84 -352 -118
-356 -282 -589 -505 -719 l-50 -28 -677 -2 c-480 -1 -682 -5 -691 -13 -25 -21
-83 -57 -163 -100 -193 -103 -278 -210 -233 -294 15 -29 41 -48 51 -38 4 5 0
23 -11 42 -10 19 -18 40 -17 47 2 6 3 18 4 25 3 37 152 164 224 190 16 6 16 4
2 -22 -39 -77 -85 -283 -101 -455 -3 -33 -7 -72 -10 -86 -2 -14 -7 -105 -10
-203 -6 -160 -5 -177 10 -177 9 0 16 3 16 8 1 4 3 54 5 112 5 132 15 291 20
322 2 12 6 50 10 83 16 165 63 339 112 418 18 28 40 46 80 64 56 24 57 24 102
7 56 -21 185 -146 255 -249 115 -166 314 -530 386 -707 22 -53 37 -68 52 -52
7 7 -17 64 -106 246 -193 399 -382 673 -531 772 l-40 26 568 0 568 0 -37 -37
c-54 -54 -104 -172 -129 -305 -3 -13 -8 -36 -11 -53 -4 -16 -8 -41 -9 -55 -1
-14 -6 -50 -10 -80 -4 -30 -9 -66 -10 -80 -6 -44 -17 -262 -19 -350 -1 -69 2
-85 14 -85 8 0 15 10 16 25 1 14 5 95 8 180 8 172 13 231 32 365 11 77 15 96
30 158 8 34 16 68 16 75 1 7 20 50 42 95 45 89 86 127 139 127 103 0 256 -155
422 -429 62 -102 223 -413 273 -528 19 -44 38 -73 47 -73 8 0 15 4 15 9 0 11
-47 116 -103 231 -209 429 -404 707 -556 793 l-41 24 42 19 c157 70 342 280
448 506 37 80 123 320 134 378 3 14 12 59 21 100 9 41 18 86 20 100 2 14 8 54
14 90 25 160 30 227 36 480 8 325 14 491 19 530 13 88 19 120 38 198 36 152
93 264 193 380 37 43 150 111 230 138 203 67 512 21 812 -123 59 -28 87 -51
150 -120 241 -264 371 -473 380 -611 6 -76 -10 -107 -69 -135 -54 -25 -92 -29
-338 -32 -305 -4 -518 23 -634 82 -23 12 -30 12 -37 2 -4 -7 -6 -16 -3 -21 5
-7 144 -54 186 -62 13 -2 41 -7 63 -11 22 -4 49 -9 60 -11 133 -25 575 -21
675 6 183 50 178 243 -15 515 -145 205 -301 377 -377 416 -128 65 -297 123
-453 154 -71 15 -281 14 -350 0z"/>
</g>
</svg>
