<?xml version="1.0" encoding="UTF-8" standalone="no" ?>
<!DOCTYPE svg PUBLIC "-//W3C//DTD SVG 1.1//EN" "http://www.w3.org/Graphics/SVG/1.1/DTD/svg11.dtd">
<svg xmlns="http://www.w3.org/2000/svg" xmlns:xlink="http://www.w3.org/1999/xlink" version="1.1" width="500" height="500" viewBox="0 0 500 500" xml:space="preserve">
<desc>Created with Fabric.js 5.3.0</desc>
<defs>
</defs>
<g transform="matrix(1 0 0 1 168.8649080735 310.551558753)" id="_wE4vZgxj-i4DlMD6U6bQ"  >
<path style="stroke: rgb(0,0,0); stroke-width: 1; stroke-dasharray: none; stroke-linecap: butt; stroke-dashoffset: 0; stroke-linejoin: miter; stroke-miterlimit: 4; fill: rgb(255,255,255); fill-opacity: 0; fill-rule: nonzero; opacity: 1;"  transform=" translate(0, 0)" d="M 0 0" stroke-linecap="round" />
</g>
<g transform="matrix(1 0 0 1 174.0607513989 310.051558753)" id="UrtoffXW0sY246XUu8h0z"  >
<path style="stroke: rgb(0,0,0); stroke-width: 1; stroke-dasharray: none; stroke-linecap: butt; stroke-dashoffset: 0; stroke-linejoin: miter; stroke-miterlimit: 4; fill: rgb(255,255,255); fill-opacity: 0; fill-rule: nonzero; opacity: 1;"  transform=" translate(0, 0)" d="M 0 0" stroke-linecap="round" />
</g>
<g transform="matrix(1 0 0 1 249.6003197442 284.7135617746)" id="9wINyextiShIz3THfERU5"  >
<path style="stroke: rgb(0,0,0); stroke-width: 1; stroke-dasharray: none; stroke-linecap: butt; stroke-dashoffset: 0; stroke-linejoin: miter; stroke-miterlimit: 4; fill: rgb(255,255,255); fill-opacity: 0; fill-rule: nonzero; opacity: 1;"  transform=" translate(0, 0)" d="M -15.98721 16.25366 C -14.78817 -56.88783000000001 15.98721 16.25366 15.98721 16.25366" stroke-linecap="round" />
</g>
<g transform="matrix(1 0 0 1 209.6402877698 284.7135624833)" id="sTGU_vvWmPKus9jGCwUr_"  >
<path style="stroke: rgb(0,0,0); stroke-width: 1; stroke-dasharray: none; stroke-linecap: butt; stroke-dashoffset: 0; stroke-linejoin: miter; stroke-miterlimit: 4; fill: rgb(255,255,255); fill-opacity: 0; fill-rule: nonzero; opacity: 1;"  transform=" translate(0, 0)" d="M -15.98721 16.25366 C -14.78817 -56.88783000000001 15.98721 16.25366 15.98721 16.25366" stroke-linecap="round" />
</g>
<g transform="matrix(1 0 0 1 262.7305219208 221.904417449)" id="7nEq0_5uyAYvHm4qV17Gg"  >
<path style="stroke: rgb(0,0,0); stroke-width: 1; stroke-dasharray: none; stroke-linecap: butt; stroke-dashoffset: 0; stroke-linejoin: miter; stroke-miterlimit: 4; fill: rgb(255,255,255); fill-opacity: 0; fill-rule: nonzero; opacity: 1;"  transform=" translate(0, 0)" d="M -61.09183 46.05548 C -22.72253 45.655800000000006 -19.525080000000003 46.05548 -19.525080000000003 46.05548 C -19.525080000000003 46.05548 4.156369999999999 40.285830000000004 3.357009999999999 -12.471959999999996 C 2.557649999999999 -65.22975 46.422160000000005 -40.049899999999994 46.422160000000005 -40.049899999999994 C 46.422160000000005 -40.049899999999994 72.40138 -14.070679999999992 55.21513 -12.471959999999992 C 38.02888 -10.873239999999992 28.83623 -14.070679999999992 26.83783 -15.269719999999992" stroke-linecap="round" />
</g>
<g transform="matrix(1 0 0 1 267.585931255 275.0618914698)" id="GZf8pQVLhsl0LW6zYhPM7"  >
<path style="stroke: rgb(0,0,0); stroke-width: 1; stroke-dasharray: none; stroke-linecap: butt; stroke-dashoffset: 0; stroke-linejoin: miter; stroke-miterlimit: 4; fill: rgb(255,255,255); fill-opacity: 0; fill-rule: nonzero; opacity: 1;"  transform=" translate(0, 0)" d="M 0 0" stroke-linecap="round" />
</g>
<g transform="matrix(1 0 0 1 273.5811350919 329.3365307754)" id="olY-DxtbA4_8z6kPXcbnu"  >
<path style="stroke: rgb(0,0,0); stroke-width: 1; stroke-dasharray: none; stroke-linecap: butt; stroke-dashoffset: 0; stroke-linejoin: miter; stroke-miterlimit: 4; fill: rgb(255,255,255); fill-opacity: 0; fill-rule: nonzero; opacity: 1;"  transform=" translate(0, 0)" d="M 0 0" stroke-linecap="round" />
</g>
<g transform="matrix(1 0 0 1 196.0475198958 274.7677188036)" id="bDBcf1r9aiSkA6NhdK2I-"  >
<path style="stroke: rgb(0,0,0); stroke-width: 1; stroke-dasharray: none; stroke-linecap: butt; stroke-dashoffset: 0; stroke-linejoin: miter; stroke-miterlimit: 4; fill: rgb(255,255,255); fill-opacity: 0; fill-rule: nonzero; opacity: 1;"  transform=" translate(0, 0)" d="M 6.68989 -6.30782 C -12.894440000000001 1.68579 -5.200200000000001 6.30782 -5.200200000000001 6.30782" stroke-linecap="round" />
</g>
</svg>